HIERARCHY
ROOT Hips
{
	OFFSET 0.000000 0.000000 0.000000
	CHANNELS 6 Xposition Yposition Zposition Xrotation Yrotation Zrotation
	JOINT LeftUpLeg_virtual
	{
		OFFSET 0.000000 0.000000 0.000000
		CHANNELS 3 Xrotation Yrotation Zrotation
		JOINT LeftUpLeg
		{
			OFFSET 10.205400 -3.823500 0.155100
			CHANNELS 3 Xrotation Yrotation Zrotation
			JOINT LeftLeg
			{
				OFFSET 0.708757 -12.982077 0.567790
				CHANNELS 3 Xrotation Yrotation Zrotation
				JOINT LeftFoot
				{
					OFFSET -0.708756 -10.717838 -2.184338
					CHANNELS 3 Xrotation Yrotation Zrotation
					JOINT LeftToeBase
					{
						OFFSET 0.108149 -7.191104 7.560241
						CHANNELS 3 Xrotation Yrotation Zrotation
						JOINT LeftToe_End
						{
							OFFSET 0.070230 0.081724 4.490308
							CHANNELS 3 Xrotation Yrotation Zrotation
							End Site
							{
								OFFSET 0 0 0
							}
						}
					}
				}
			}
		}
	}
	JOINT RightUpLeg_virtual
	{
		OFFSET 0.000000 0.000000 0.000000
		CHANNELS 3 Xrotation Yrotation Zrotation
		JOINT RightUpLeg
		{
			OFFSET -10.205400 -3.823500 0.005500
			CHANNELS 3 Xrotation Yrotation Zrotation
			JOINT RightLeg
			{
				OFFSET -0.708756 -12.982134 0.610632
				CHANNELS 3 Xrotation Yrotation Zrotation
				JOINT RightFoot
				{
					OFFSET 0.708754 -10.717769 -1.945823
					CHANNELS 3 Xrotation Yrotation Zrotation
					JOINT RightToeBase
					{
						OFFSET -0.108140 -7.191069 7.372968
						CHANNELS 3 Xrotation Yrotation Zrotation
						JOINT RightToe_End
						{
							OFFSET -0.070227 0.081735 4.479403
							CHANNELS 3 Xrotation Yrotation Zrotation
							End Site
							{
								OFFSET 0 0 0
							}
						}
					}
				}
			}
		}
	}
	JOINT Spine_virtual
	{
		OFFSET 0.000000 0.000000 0.000000
		CHANNELS 3 Xrotation Yrotation Zrotation
		JOINT Spine
		{
			OFFSET 0.000000 6.876099 0.125700
			CHANNELS 3 Xrotation Yrotation Zrotation
			JOINT Spine1
			{
				OFFSET 0.000000 5.730043 0.104720
				CHANNELS 3 Xrotation Yrotation Zrotation
				JOINT Spine1_split
				{
					OFFSET 0.000000 5.730043 0.104720
					CHANNELS 3 Xrotation Yrotation Zrotation
					JOINT Spine2
					{
						OFFSET 0.000000 5.730043 0.104720
						CHANNELS 3 Xrotation Yrotation Zrotation
						JOINT Neck_virtual
						{
							OFFSET 0.000000 0.000000 0.000000
							CHANNELS 3 Xrotation Yrotation Zrotation
							JOINT Neck
							{
								OFFSET 0.000000 10.314075 0.188496
								CHANNELS 3 Xrotation Yrotation Zrotation
								JOINT Head
								{
									OFFSET 0.000000 7.643700 -2.377400
									CHANNELS 3 Xrotation Yrotation Zrotation
									JOINT HeadTop_End
									{
										OFFSET 0.000000 43.788605 -13.619600
										CHANNELS 3 Xrotation Yrotation Zrotation
										End Site
										{
											OFFSET 0 0 0
										}
									}
								}
							}
						}
						JOINT LeftShoulder_virtual
						{
							OFFSET 0.000000 0.000000 0.000000
							CHANNELS 3 Xrotation Yrotation Zrotation
							JOINT LeftShoulder
							{
								OFFSET 2.196100 4.412489 0.087492
								CHANNELS 3 Xrotation Yrotation Zrotation
								JOINT LeftShoulder_split
								{
									OFFSET 2.196100 4.412489 0.087492
									CHANNELS 3 Xrotation Yrotation Zrotation
									JOINT LeftArm
									{
										OFFSET 8.771219 -2.981674 -0.026999
										CHANNELS 3 Xrotation Yrotation Zrotation
										JOINT LeftForeArm
										{
											OFFSET 8.512804 0.000000 -0.000000
											CHANNELS 3 Xrotation Yrotation Zrotation
											JOINT LeftHand
											{
												OFFSET 18.484802 0.000000 -0.000000
												CHANNELS 3 Xrotation Yrotation Zrotation
												End Site
												{
													OFFSET 0 0 0
												}
											}
										}
									}
								}
							}
						}
						JOINT RightShoulder_virtual
						{
							OFFSET 0.000000 0.000000 0.000000
							CHANNELS 3 Xrotation Yrotation Zrotation
							JOINT RightShoulder
							{
								OFFSET -2.196100 4.412496 0.070690
								CHANNELS 3 Xrotation Yrotation Zrotation
								JOINT RightShoulder_split
								{
									OFFSET -2.196100 4.412496 0.070690
									CHANNELS 3 Xrotation Yrotation Zrotation
									JOINT RightArm
									{
										OFFSET -8.771282 -2.981682 -0.094208
										CHANNELS 3 Xrotation Yrotation Zrotation
										JOINT RightForeArm
										{
											OFFSET -8.494598 0.000000 0.000000
											CHANNELS 3 Xrotation Yrotation Zrotation
											JOINT RightHand
											{
												OFFSET -18.483803 0.000000 0.000001
												CHANNELS 3 Xrotation Yrotation Zrotation
												End Site
												{
													OFFSET 0 0 0
												}
											}
										}
									}
								}
							}
						}
					}
				}
			}
		}
	}
}
MOTION
Frames: 8
Frame Time: 0.03333333
1.148777 27.388966 -0.933046 0.000000 0.000000 0.000000 -4.653315 -43.804090 15.393233 -9.587541 28.814495 -2.317722 53.588599 -0.589340 3.416955 -29.381394 22.386273 -11.317325 -0.000111 0.000004 -0.000001 0.000000 0.000000 0.000000 -4.653315 -43.804090 15.393233 -31.754454 16.767237 -45.855045 86.978340 13.132856 -9.038893 -43.255059 -14.197177 24.380140 -1.318597 0.000010 0.000004 0.000000 0.000000 0.000000 -4.653315 -43.804090 15.393233 0.363528 -2.579681 8.300487 -0.023341 -1.710608 5.081367 0.000000 0.000000 0.000000 0.000000 0.000000 0.000000 -0.126060 -1.589342 5.080998 -11.640982 3.400651 8.933799 -20.262740 31.163616 -6.415766 0.000000 0.000000 0.000000 -0.126060 -1.589342 5.080998 -0.465255 1.737084 14.489027 0.000000 0.000000 0.000000 -35.122544 -32.435721 -48.626685 0.000141 -84.342372 0.000147 0.000000 0.000000 0.000000 -0.126060 -1.589342 5.080998 -0.021961 -5.785207 7.001644 0.000000 0.000000 0.000000 119.104074 72.367794 -83.651027 0.000010 26.658734 -0.000006 0.000000 0.000000 0.000000 
1.355006 27.554779 -0.784904 0.000000 0.000000 0.000000 -3.158232 -42.747528 16.473090 -10.785964 27.290661 -3.467564 52.724433 -0.107954 2.387761 -29.033225 22.570770 -10.073493 -0.000114 0.000004 -0.000001 0.000000 0.000000 0.000000 -3.158232 -42.747528 16.473090 -32.941774 16.869594 -45.369057 86.174960 12.838534 -9.044233 -42.184228 -14.575911 24.526154 -1.794962 0.000011 -0.000008 0.000000 0.000000 0.000000 -3.158232 -42.747528 16.473090 0.378786 -2.097950 8.318534 0.027305 -1.386098 5.062940 0.000000 0.000000 0.000000 0.000000 0.000000 0.000000 -0.080029 -1.272372 5.054153 -11.424512 3.372363 7.860913 -19.486301 29.446240 -6.823218 0.000000 0.000000 0.000000 -0.080029 -1.272372 5.054153 -0.548183 2.093923 14.136003 0.000000 0.000000 0.000000 -33.452074 -33.141994 -47.500762 0.000074 -87.864387 0.000137 0.000000 0.000000 0.000000 -0.080029 -1.272372 5.054153 -0.011253 -5.892461 7.391235 0.000000 0.000000 0.000000 118.821208 72.028129 -83.806018 -0.000027 25.801448 0.000028 0.000000 0.000000 0.000000 
1.592835 27.856609 -0.636169 0.000000 0.000000 0.000000 -1.422063 -41.883369 17.630463 -11.588816 26.220009 -4.737418 50.662027 0.656459 1.483700 -27.989299 22.328814 -8.985767 -0.000116 0.000004 -0.000001 0.000000 0.000000 0.000000 -1.422063 -41.883369 17.630463 -35.657634 16.850510 -44.145401 85.052207 11.755932 -9.232262 -40.256401 -13.269869 24.675126 -2.520315 0.000019 -0.000004 0.000000 0.000000 0.000000 -1.422063 -41.883369 17.630463 0.469369 -1.497853 8.307006 0.140024 -0.990054 5.027510 0.000000 0.000000 0.000000 0.000000 0.000000 0.000000 0.034601 -0.892058 5.011685 -11.378204 3.392046 6.943754 -18.730009 28.242400 -7.478138 0.000000 0.000000 0.000000 0.034601 -0.892058 5.011685 -0.713347 2.845074 13.378975 0.000000 0.000000 0.000000 -31.471753 -33.569437 -46.626232 179.999718 -89.203281 179.999704 0.000000 0.000000 0.000000 0.034601 -0.892058 5.011685 0.007042 -5.858263 7.548244 0.000000 0.000000 0.000000 118.019590 71.112528 -83.953475 0.000006 25.056460 -0.000015 0.000000 0.000000 0.000000 
1.824841 28.275795 -0.508522 0.000000 0.000000 0.000000 0.391836 -41.065642 18.727651 -12.004355 26.024044 -5.959792 47.550640 1.443034 1.156927 -26.202711 21.478529 -8.188419 -0.000111 0.000003 0.000000 0.000000 0.000000 0.000000 0.391836 -41.065642 18.727651 -39.175356 16.126488 -42.655484 83.377943 10.377578 -9.569343 -37.777278 -10.964241 24.579056 -3.275440 -0.000004 0.000004 0.000000 0.000000 0.000000 0.391836 -41.065642 18.727651 0.575050 -0.909508 8.227280 0.248647 -0.611692 4.969979 0.000000 0.000000 0.000000 0.000000 0.000000 0.000000 0.148296 -0.527141 4.950949 -11.272894 3.482790 6.354419 -18.308204 27.862778 -8.161828 0.000000 0.000000 0.000000 0.148296 -0.527141 4.950949 -0.900968 3.730490 12.504871 0.000000 0.000000 0.000000 -29.630020 -34.106386 -46.030161 179.999964 -87.986661 179.999909 0.000000 0.000000 0.000000 0.148296 -0.527141 4.950949 0.026409 -5.749834 7.553656 0.000000 0.000000 0.000000 117.949635 69.470114 -85.203939 0.000003 24.027701 -0.000014 0.000000 0.000000 0.000000 
2.018306 28.716778 -0.400414 0.000000 0.000000 0.000000 1.814991 -40.074168 19.376328 -12.221205 26.264096 -6.885983 44.312891 2.003970 1.265579 -24.208113 20.250433 -7.571266 -0.000112 0.000004 -0.000001 0.000000 0.000000 0.000000 1.814991 -40.074168 19.376328 -42.516042 14.675623 -41.154205 81.443504 9.226345 -9.939809 -35.194701 -8.737989 24.036363 -3.577860 0.000009 -0.000011 0.000000 0.000000 0.000000 1.814991 -40.074168 19.376328 0.716604 -0.409712 8.125684 0.373154 -0.294173 4.904680 0.000000 0.000000 0.000000 0.000000 0.000000 0.000000 0.278836 -0.218177 4.885692 -11.068352 3.540301 6.038587 -18.046845 27.713569 -8.655212 0.000000 0.000000 0.000000 0.278836 -0.218177 4.885692 -0.992060 4.206209 11.860261 0.000000 0.000000 0.000000 -28.353299 -34.505146 -45.620777 -179.999568 -88.779229 -179.999623 0.000000 0.000000 0.000000 0.278836 -0.218177 4.885692 0.044091 -5.617866 7.488514 0.000000 0.000000 0.000000 118.954561 67.350726 -87.725488 0.000011 22.292429 -0.000005 0.000000 0.000000 0.000000 
2.164994 29.082657 -0.308159 0.000000 0.000000 0.000000 2.556532 -38.892880 19.327788 -12.581896 26.348279 -7.218602 42.021427 2.287038 1.371370 -22.686181 19.012660 -6.971452 -0.000114 0.000004 -0.000001 0.000000 0.000000 0.000000 2.556532 -38.892880 19.327788 -44.935982 12.791457 -39.855711 79.597160 8.530536 -10.231366 -32.895427 -7.281848 23.206853 -3.293885 -0.000012 -0.000006 0.000000 0.000000 0.000000 2.556532 -38.892880 19.327788 0.966324 0.024879 8.016479 0.586333 -0.013888 4.828204 0.000000 0.000000 0.000000 0.000000 0.000000 0.000000 0.499178 0.055759 4.811660 -10.782263 3.465067 5.897541 -17.619451 27.180208 -9.096443 0.000000 0.000000 0.000000 0.499178 0.055759 4.811660 -0.979575 4.192209 11.552871 0.000000 0.000000 0.000000 -27.662423 -34.121801 -45.203223 179.997669 -89.882967 179.997355 0.000000 0.000000 0.000000 0.499178 0.055759 4.811660 0.059265 -5.513790 7.461413 0.000000 0.000000 0.000000 120.496886 65.501186 -90.867758 0.000005 19.982862 -0.000002 0.000000 0.000000 0.000000 
2.270878 29.362175 -0.228069 0.000000 0.000000 0.000000 2.695152 -37.589543 18.644545 -13.236298 26.130016 -6.905903 40.929280 2.418017 1.336065 -21.793414 17.854844 -6.390126 -0.000117 0.000004 -0.000001 0.000000 0.000000 0.000000 2.695152 -37.589543 18.644545 -46.413499 10.619625 -38.776941 77.903061 8.239151 -10.437198 -31.022668 -6.392660 22.242892 -2.547060 0.000036 0.000002 0.000000 0.000000 0.000000 2.695152 -37.589543 18.644545 1.307728 0.387020 7.852926 0.879411 0.220169 4.725271 0.000000 0.000000 0.000000 0.000000 0.000000 0.000000 0.801724 0.284959 4.713317 -10.323303 3.263850 5.921964 -17.096891 26.275403 -9.518712 0.000000 0.000000 0.000000 0.801724 0.284959 4.713317 -0.946786 4.021453 11.528787 0.000000 0.000000 0.000000 -27.264631 -32.676595 -44.572172 -179.998311 -89.442925 -179.998502 0.000000 0.000000 0.000000 0.801724 0.284959 4.713317 0.073535 -5.453147 7.529828 0.000000 0.000000 0.000000 122.381294 64.638001 -94.376972 -0.000005 17.682767 0.000007 0.000000 0.000000 0.000000 
2.333666 29.586269 -0.158733 0.000000 0.000000 0.000000 2.466772 -36.129078 17.593136 -14.123866 25.663507 -6.207055 40.621280 2.536019 1.305396 -21.235365 16.696701 -5.940532 -0.000116 0.000003 0.000000 0.000000 0.000000 0.000000 2.466772 -36.129078 17.593136 -47.262450 8.255902 -37.983324 76.244650 8.097455 -10.579330 -29.482378 -5.501965 21.336579 -1.684597 0.000015 0.000009 0.000000 0.000000 0.000000 2.466772 -36.129078 17.593136 1.657485 0.616018 7.570767 1.171748 0.365971 4.585482 0.000000 0.000000 0.000000 0.000000 0.000000 0.000000 1.106519 0.429078 4.579244 -9.729430 3.011558 6.112297 -16.698330 25.348092 -9.819000 0.000000 0.000000 0.000000 1.106519 0.429078 4.579244 -0.941631 3.903457 11.741864 0.000000 0.000000 0.000000 -28.523973 -31.463683 -45.019652 0.000371 -89.340910 0.000390 0.000000 0.000000 0.000000 1.106519 0.429078 4.579244 0.088322 -5.382638 7.578453 0.000000 0.000000 0.000000 124.868439 64.836650 -98.542274 0.000009 15.709693 -0.000016 0.000000 0.000000 0.000000 
